<?xml version="1.0" encoding="iso-8859-1"?>
<!-- Generator: Adobe Illustrator 19.0.0, SVG Export Plug-In . SVG Version: 6.00 Build 0)  -->
<svg version="1.1" id="Capa_1" xmlns="http://www.w3.org/2000/svg" xmlns:xlink="http://www.w3.org/1999/xlink" x="0px" y="0px"
	 viewBox="0 0 512.057 512.057" style="enable-background:new 0 0 512.057 512.057;" xml:space="preserve">
<g>
	<g>
		<g>
			<path d="M341.331,14.666c-10.735-3.787-21.708-6.86-32.848-9.2l-6.56,31.376c9.766,2.028,19.387,4.701,28.8,8L341.331,14.666z"/>
			<path d="M272.403,32.65l2.32-32c-11.35-0.789-22.739-0.843-34.096-0.16l1.872,32C252.46,31.895,262.449,31.948,272.403,32.65z"/>
			<path d="M239.603,479.45l-2.32,31.92c6.176,0.448,12.416,0.672,18.72,0.672c5.152,0,10.288-0.144,15.36-0.448l-1.872-32
				C259.536,480.186,249.553,480.138,239.603,479.45z"/>
			<path d="M170.643,497.402c10.733,3.818,21.713,6.902,32.864,9.232l6.56-31.328c-9.737-2.019-19.327-4.691-28.704-8
				L170.643,497.402z"/>
			<path d="M507.382,208.339c-9.32-48.27-32.383-92.822-66.418-128.297h39.04v-32h-96v96h32v-43.936
				c86.43,88.006,85.152,229.414-2.854,315.843c-31.315,30.754-70.997,51.6-114.09,59.933l6.128,31.408
				C443.575,480.571,534.1,346.726,507.382,208.339z"/>
			<path d="M272.003,368.042v-34.944c24.946-8.786,38.045-36.132,29.259-61.077c-6.76-19.193-24.911-32.017-45.259-31.979
				c-8.837,0-16-7.163-16-16s7.163-16,16-16h48v-32h-32v-32h-32v34.944c-24.946,8.786-38.045,36.132-29.259,61.077
				c6.76,19.192,24.911,32.017,45.259,31.979c8.837,0,16,7.163,16,16s-7.163,16-16,16h-48v32h32v32H272.003z"/>
			<path d="M96.003,411.978c-86.43-88.006-85.152-229.414,2.854-315.843c31.315-30.754,70.997-51.599,114.09-59.933l-6.16-31.36
				C68.402,31.614-22.079,165.502,4.694,303.888c9.327,48.212,32.365,92.709,66.35,128.154h-39.04v32h96v-96h-32V411.978z"/>
			<path d="M416.003,256.042c0-88.366-71.634-160-160-160s-160,71.634-160,160s71.634,160,160,160
				C344.329,415.945,415.906,344.367,416.003,256.042z M128.003,256.042c0-70.692,57.308-128,128-128s128,57.308,128,128
				s-57.308,128-128,128C185.344,383.962,128.083,326.701,128.003,256.042z"/>
		</g>
	</g>
</g>
<g>
</g>
<g>
</g>
<g>
</g>
<g>
</g>
<g>
</g>
<g>
</g>
<g>
</g>
<g>
</g>
<g>
</g>
<g>
</g>
<g>
</g>
<g>
</g>
<g>
</g>
<g>
</g>
<g>
</g>
</svg>
