<svg id="Layer_1" data-name="Layer 1" xmlns="http://www.w3.org/2000/svg" viewBox="0 0 512 355.12"><defs><style>.cls-1{fill:#FFD61E;}</style></defs><title>menu (2)</title><path class="cls-1" d="M491.32,235.32H20.68a20.68,20.68,0,0,0,0,41.36H491.32A20.68,20.68,0,1,0,491.32,235.32Z" transform="translate(0 -78.44)"/><path class="cls-1" d="M491.32,78.44H20.68a20.68,20.68,0,1,0,0,41.36H491.32A20.68,20.68,0,1,0,491.32,78.44Z" transform="translate(0 -78.44)"/><path class="cls-1" d="M491.32,392.2H20.68a20.68,20.68,0,0,0,0,41.36H491.32A20.68,20.68,0,1,0,491.32,392.2Z" transform="translate(0 -78.44)"/></svg>